PathFileType	4	(X/Y/Z)	T1_P2_Vision_NoMovement_4_0-734.trc
DataRate	CameraRate	NumFrames	NumMarkers	Units	OrigDataRate	OrigDataStartFrame	OrigNumFrames
60	60	4	27	m	60	183	734
Frame#	Time	RHip			RKnee			RAnkle			RBigToe			RSmallToe			RHeel			LHip			LKnee			LAnkle			LBigToe			LSmallToe			LHeel			Neck			Head			Nose			RShoulder			RElbow			RWrist			RThumb			RIndex			RPinky			LShoulder			LElbow			LWrist			LThumb			LIndex			LPinky		
		X1	Y1	Z1	X2	Y2	Z2	X3	Y3	Z3	X4	Y4	Z4	X5	Y5	Z5	X6	Y6	Z6	X7	Y7	Z7	X8	Y8	Z8	X9	Y9	Z9	X10	Y10	Z10	X11	Y11	Z11	X12	Y12	Z12	X13	Y13	Z13	X14	Y14	Z14	X15	Y15	Z15	X16	Y16	Z16	X17	Y17	Z17	X18	Y18	Z18	X19	Y19	Z19	X20	Y20	Z20	X21	Y21	Z21	X22	Y22	Z22	X23	Y23	Z23	X24	Y24	Z24	X25	Y25	Z25	X26	Y26	Z26	X27	Y27	Z27
184	3.066666666666667	459.3476318140473	3634.6961263591957	642.7622613943861	841.9741758862831	3695.462004696988	647.6011576306788	1213.298197382142	3726.217297959321	681.2616488934087	1298.563727622251	3652.094407184567	656.955581817933	1288.9731431106054	3686.2170498286314	604.4430301906208	1279.886189593498	3796.5749759918003	741.3131198660813	467.63188257726773	3598.520570393642	850.9491222173713	844.2103062642909	3580.7187028536123	848.9614368031234	1235.1923404577583	3676.1072033405217	853.8329182327207	1310.3734203406188	3559.108432993092	811.1988490964584	1289.9255800217325	3535.501543886355	848.0922598049992	1269.1855940824937	3713.564579879941	859.8828598274742	-123.3194066405387	3617.9698091347277	758.9249605139523	-385.4699696991132	3563.6886637081366	706.9312944925338	-236.04272533174344	3450.566772140238	683.7493020082375	-29.498915775130147	3680.5181133466913	598.3874362983804	206.2167133238977	3624.6175903049057	520.3747155590606	363.8399572824378	3508.952317993655	625.3887960790821	415.397935855662	3426.3976769046067	689.9450994484682	446.10478607549254	3441.3961805657364	703.8369871137612	481.4976723894848	3478.3121892328445	716.1944167286492	-29.54107517367425	3522.246061655965	899.346886535081	230.23565263209358	3487.8152192392718	918.7376716755598	365.8530348046257	3361.2451400372292	701.0789299332105	405.7144506166255	3397.090695314829	608.086653838658	443.7807039274179	3408.9345214914724	600.6241291973948	480.73484675061513	3423.7109927923498	684.5825328520766
185	3.083333333333333	459.4172838464907	3634.4705953442353	642.6082519024568	839.6932046748075	3694.2220535013976	647.0072169661469	1213.040475425698	3727.69533955775	682.4676478133224	1298.4400254465982	3651.5108027402975	656.2061011297278	1288.9949688381346	3686.2812293510506	604.5040449175576	1279.9961601499845	3796.7924879356124	741.4952574176361	467.24836630742885	3599.2925268862227	850.6439304509302	845.6730031650139	3586.8630446338743	850.8670591359603	1235.4447208132215	3675.6069344818734	853.4981257701168	1307.630262110895	3554.224254523531	809.4460676346752	1289.6337337383247	3535.867005430916	846.1883957515007	1267.4642050834736	3715.3577309059087	860.7356962974934	-124.21885395673723	3618.898274798211	759.4077638351538	-385.39039729963645	3565.3399123413046	707.897322610696	-236.93938390255562	3449.540210273998	682.439725075073	-32.35258703619491	3681.2112154272318	599.3870848057852	205.9474252132469	3622.8541313913624	518.9314014834605	363.4645774284746	3513.339051910545	626.5105065796268	414.865136848595	3423.821486957134	686.8669089926154	446.25853860278687	3441.8058822190314	703.8957725693584	482.2806817152762	3483.398404404667	717.7646967842157	-29.529092077123927	3527.823420808815	901.2364115933403	229.1262116255519	3487.0625362024234	918.3782692762574	366.5342683816049	3366.806102090171	701.6776670881015	406.84276935953767	3395.5755408876566	607.7658762011171	443.16671628484073	3408.492620142642	601.8012838606325	480.71020021330673	3424.695303375804	684.9222546550999
186	3.1	459.36490750160124	3634.4156755019735	642.5582644558924	837.4774274954021	3691.5504061208635	645.978481853399	1213.667327399543	3730.1581641505777	684.4783908239209	1297.1093930910185	3648.6504772651997	653.7667751406724	1288.306162757525	3687.7169315361516	605.3446976165283	1281.4150730853478	3797.926236633802	741.8291698786315	466.6928858840148	3598.964683942593	850.4599684456571	847.136190776618	3588.1114211125955	850.9057422809495	1236.0601305422806	3674.3487836209997	852.7292611572282	1306.9230123875714	3552.015061206966	808.5457305649509	1289.3618189857616	3536.510296809044	844.947501461168	1265.7535220391678	3713.9183323889774	860.4718006161695	-124.99020427023137	3619.5839051269845	759.7851162280118	-385.2996035262736	3567.6948450289256	710.0488131730349	-237.68890689624405	3449.221075230865	682.2895910447287	-34.96706985305223	3682.201098235666	601.3379555381407	205.89289147087914	3622.658565547753	518.7600883570689	364.0686582080057	3518.18812811846	627.8911568723662	414.2864440755509	3420.9129278671903	683.874471946117	446.30953170723797	3441.59827874574	703.8123463213107	482.30064954267476	3483.5690482962686	717.8069444286501	-30.04470931100009	3529.924980204452	901.9323856521288	229.09699225049866	3487.126694703306	918.4133419538882	366.823746930861	3368.9320306549253	702.2738327300767	407.6818115634277	3394.161898216357	607.7050066415964	442.75760196762906	3408.2077048588417	603.005364912725	480.7498505140219	3425.70171604342	685.2475669598837
187	3.1166666666666667	459.31524394065667	3634.4106350233897	642.547901316654	836.2007904177901	3688.448903791928	644.9475649440781	1213.4361345691827	3729.832505154576	684.2166902866386	1295.6600058009715	3645.468045400752	651.223856090024	1287.345670364778	3689.68693651598	606.4537445004713	1282.9911594353177	3799.097749792678	742.1077265957587	466.60159726125323	3598.632819424994	850.44471772016	848.1760318228643	3586.9357655916583	850.2242573891384	1236.5727434182495	3673.226812940731	852.0588419358928	1308.0134302542076	3553.7229268417723	809.066784190347	1289.2363521109921	3537.0996820378105	844.8136586198642	1264.3936456054844	3710.714047401582	859.5250824210157	-125.36397343342401	3619.85250838748	759.9640971675634	-385.7744913570658	3569.3420250741387	711.5101436127139	-237.98335392990128	3447.62207720013	682.0446418216868	-36.01272162090805	3683.0170331073623	603.622934871788	205.9227157722443	3622.9556659162927	518.9914765264348	365.2075246083364	3519.053777760153	628.2694836568843	413.7785931976907	3417.0444385858227	682.6799221954324	445.8774216125878	3439.2430790476155	703.1897718695134	481.5657029519228	3478.7650652393477	716.295687463452	-31.19653249953529	3530.01661459281	902.0085487408363	230.3340003772662	3488.0563096614496	918.8458814779522	366.84910405538164	3368.696883656273	702.835553300694	408.01379940843145	3393.4719701669424	607.6347534274664	442.9738535300098	3408.249035812628	603.696687466968	480.5730282727408	3424.5732590850434	684.9028317964646
